<svg width="22" height="24" viewBox="0 0 22 24" fill="none" xmlns="http://www.w3.org/2000/svg">
<path d="M18.9022 2.59972H18.1791V1.81085C18.1791 0.811919 17.3909 0 16.421 0C15.4504 0 14.6628 0.811919 14.6628 1.81085V2.59906H12.8585V1.81085C12.8585 0.811919 12.0703 0 11.1004 0C10.1304 0 9.3422 0.811919 9.3422 1.81085V2.59906H7.53793V1.81085C7.53793 0.811919 6.74972 0 5.77976 0C4.80981 0 4.02159 0.811919 4.02159 1.81085V2.59906H3.09839C1.55555 2.59906 0.299805 3.8548 0.299805 5.39765V21.2014C0.299805 22.7443 1.55555 24 3.09839 24H18.9022C20.4457 24 21.7007 22.7443 21.7007 21.2014V5.39765C21.7007 3.85546 20.445 2.59972 18.9022 2.59972ZM15.6505 1.81085C15.6505 1.35715 15.9962 0.987736 16.421 0.987736C16.8464 0.987736 17.1914 1.35715 17.1914 1.81085V5.03482C17.1914 5.48852 16.8464 5.85793 16.421 5.85793C15.9962 5.85793 15.6505 5.48852 15.6505 5.03482V1.81085ZM10.3299 1.81085C10.3299 1.35715 10.6756 0.987736 11.1004 0.987736C11.5251 0.987736 11.8708 1.35715 11.8708 1.81085V5.03482C11.8708 5.48852 11.5251 5.85793 11.1004 5.85793C10.6756 5.85793 10.3299 5.48852 10.3299 5.03482V1.81085ZM5.00867 1.81085C5.00867 1.35715 5.35438 0.987736 5.7791 0.987736C6.20383 0.987736 6.54954 1.35715 6.54954 1.81085V5.03482C6.54954 5.48852 6.20383 5.85793 5.7791 5.85793C5.35438 5.85793 5.00867 5.48852 5.00867 5.03482V1.81085ZM20.0545 21.2021C20.0545 21.8375 19.5376 22.3544 18.9022 22.3544H3.09839C2.46295 22.3544 1.94603 21.8375 1.94603 21.2021V6.71529H20.0545V21.2021Z" fill="#4B75FC"/>
<path d="M6.4535 9.63086H3.42773V12.3234H6.4535V9.63086Z" fill="#4B75FC"/>
<path d="M10.4922 9.63086H7.46582V12.3234H10.4922V9.63086Z" fill="#4B75FC"/>
<path d="M14.5336 9.63086H11.5078V12.3234H14.5336V9.63086Z" fill="#4B75FC"/>
<path d="M18.5733 9.63086H15.5469V12.3234H18.5733V9.63086Z" fill="#4B75FC"/>
<path d="M6.4535 13.2246H3.42773V15.9152H6.4535V13.2246Z" fill="#4B75FC"/>
<path d="M10.4922 13.2246H7.46582V15.9152H10.4922V13.2246Z" fill="#4B75FC"/>
<path d="M14.5336 13.2246H11.5078V15.9152H14.5336V13.2246Z" fill="#4B75FC"/>
<path d="M18.5733 13.2246H15.5469V15.9152H18.5733V13.2246Z" fill="#4B75FC"/>
<path d="M6.4535 16.8184H3.42773V19.5089H6.4535V16.8184Z" fill="#4B75FC"/>
<path d="M10.4922 16.8184H7.46582V19.5089H10.4922V16.8184Z" fill="#4B75FC"/>
<path d="M14.5336 16.8184H11.5078V19.5089H14.5336V16.8184Z" fill="#4B75FC"/>
<path d="M18.5733 16.8184H15.5469V19.5089H18.5733V16.8184Z" fill="#4B75FC"/>
</svg>
