<svg width="42" height="42" viewBox="0 0 42 42" fill="none" xmlns="http://www.w3.org/2000/svg">
<g opacity="0.4" clip-path="url(#clip0)">
<path d="M38.8335 30.0925C31.1562 34.525 21.3612 31.9668 16.8195 24.3929C12.1947 16.6807 14.8259 6.50402 22.6124 2.00559C22.8516 1.86737 23.0929 1.73603 23.336 1.61135C24.1074 1.21579 23.8485 0.051687 22.9824 0.0164136C19.0475 -0.143793 15.0195 0.799812 11.3757 2.97659C1.54705 8.84839 -1.757 21.6135 3.98035 31.5212C9.78512 41.5453 22.6142 44.976 32.649 39.1825C36.2178 37.122 38.9522 34.1718 40.7348 30.7739C41.1387 30.004 40.2642 29.193 39.5338 29.6646C39.3053 29.8123 39.0718 29.955 38.8335 30.0925Z" fill="white"/>
<path d="M38.8335 30.0925C31.1562 34.525 21.3612 31.9668 16.8195 24.3929C12.1947 16.6807 14.8259 6.50402 22.6124 2.00559C22.8516 1.86737 23.0929 1.73603 23.336 1.61135C24.1074 1.21579 23.8485 0.051687 22.9824 0.0164136C19.0475 -0.143793 15.0195 0.799812 11.3757 2.97659C1.54705 8.84839 -1.757 21.6135 3.98035 31.5212C9.78512 41.5453 22.6142 44.976 32.649 39.1825C36.2178 37.122 38.9522 34.1718 40.7348 30.7739C41.1387 30.004 40.2642 29.193 39.5338 29.6646C39.3053 29.8123 39.0718 29.955 38.8335 30.0925Z" fill="white" fill-opacity="0.6"/>
<path d="M38.8343 30.0938C32.1633 33.9453 23.8935 32.5184 18.8604 27.1094C14.498 30.9744 9.3583 33.0045 4.70508 32.6822C10.7998 41.803 23.0127 44.7476 32.6496 39.1838C36.2184 37.1233 38.9528 34.1731 40.7354 30.7752C41.1393 30.0053 40.2649 29.1943 39.5345 29.666C39.306 29.8136 39.0726 29.9563 38.8343 30.0938Z" fill="white" fill-opacity="0.8"/>
</g>
<defs>
<clipPath id="clip0">
<rect width="42" height="42" fill="white"/>
</clipPath>
</defs>
</svg>
