<svg width="28" height="28" viewBox="0 0 28 28" fill="none" xmlns="http://www.w3.org/2000/svg">
<path d="M11.7009 16.2987C9.146 13.7438 8.56911 11.1889 8.43896 10.1652C8.40259 9.88218 8.49999 9.59834 8.70248 9.39727L10.7701 7.33062C11.0742 7.02666 11.1282 6.55296 10.9002 6.18838L7.60824 1.07667C7.35603 0.672967 6.83818 0.527265 6.41246 0.740233L1.12769 3.22916C0.783434 3.39868 0.580945 3.76445 0.620032 4.14619C0.896939 6.7768 2.04379 13.2435 8.39881 19.599C14.7538 25.9545 21.2196 27.1008 23.8516 27.3778C24.2333 27.4168 24.5991 27.2144 24.7686 26.8701L27.2576 21.5853C27.4697 21.1605 27.325 20.6441 26.923 20.3914L21.8113 17.1004C21.4469 16.8721 20.9732 16.9257 20.669 17.2296L18.6024 19.2972C18.4013 19.4996 18.1174 19.597 17.8344 19.5607C16.8108 19.4305 14.2559 18.8536 11.7009 16.2987Z" fill="white"/>
<path d="M21.8459 14.9222C21.3361 14.9222 20.9228 14.509 20.9228 13.9992C20.9185 10.1777 17.8217 7.08084 14.0002 7.07652C13.4904 7.07652 13.0771 6.66326 13.0771 6.15349C13.0771 5.64372 13.4904 5.23047 14.0002 5.23047C18.8408 5.23581 22.7635 9.15857 22.7689 13.9992C22.7689 14.509 22.3556 14.9222 21.8459 14.9222Z" fill="white"/>
<path d="M26.461 14.9221C25.9512 14.9221 25.538 14.5088 25.538 13.9991C25.5308 7.62988 20.3694 2.4684 14.0002 2.46128C13.4904 2.46128 13.0771 2.04803 13.0771 1.53826C13.0771 1.02849 13.4904 0.615234 14.0002 0.615234C21.3885 0.623374 27.3759 6.61076 27.384 13.9991C27.384 14.2439 27.2868 14.4786 27.1137 14.6517C26.9406 14.8249 26.7058 14.9221 26.461 14.9221Z" fill="white"/>
</svg>
