<svg width="32" height="32" viewBox="0 0 32 32" fill="none" xmlns="http://www.w3.org/2000/svg">
<path d="M16.0005 0.399818C9.6045 0.399818 3.53082 -0.168699 1.21092 5.78049C0.252656 8.23761 0.391815 11.4287 0.391815 15.998C0.391815 20.0075 0.263225 23.7759 1.21092 26.2137C3.52554 32.1664 9.64854 31.5961 15.997 31.5961C22.1218 31.5961 28.4368 32.2332 30.7849 26.2137C31.7449 23.7319 31.604 20.5883 31.604 15.998C31.604 9.90444 31.9404 5.97058 28.9828 3.01711C25.9883 0.0249138 21.9386 0.399818 15.9935 0.399818H16.0005ZM14.6019 3.21072C27.9436 3.1896 29.6417 1.70759 28.7045 22.2956C28.3716 29.5772 22.8229 28.7781 16.0023 28.7781C3.56605 28.7781 3.20847 28.4226 3.20847 15.9909C3.20847 3.41489 4.19491 3.21776 14.6019 3.2072V3.21072ZM24.3325 5.79985C23.2985 5.79985 22.46 6.63766 22.46 7.67085C22.46 8.70404 23.2985 9.54185 24.3325 9.54185C25.3665 9.54185 26.205 8.70404 26.205 7.67085C26.205 6.63766 25.3665 5.79985 24.3325 5.79985ZM16.0005 7.98767C11.5739 7.98767 7.98567 11.5748 7.98567 15.998C7.98567 20.4211 11.5739 24.0065 16.0005 24.0065C20.4272 24.0065 24.0136 20.4211 24.0136 15.998C24.0136 11.5748 20.4272 7.98767 16.0005 7.98767ZM16.0005 10.7986C22.8792 10.7986 22.888 21.1973 16.0005 21.1973C9.12361 21.1973 9.11304 10.7986 16.0005 10.7986Z" fill="white"/>
</svg>
