<svg width="42" height="42" viewBox="0 0 42 42" fill="none" xmlns="http://www.w3.org/2000/svg">
<path d="M6.16711 33.2454L6.41337 32.5113L5.95758 31.8854C3.73181 28.8287 2.42285 25.0655 2.42285 21.0008C2.42285 10.7564 10.7536 2.42383 20.9948 2.42383H21.0048C31.2458 2.42383 39.5767 10.7588 39.5767 21.0008C39.5767 31.2427 31.2458 39.5777 21.0048 39.5777C17.2247 39.5777 13.7245 38.4545 10.7884 36.5095L10.1886 36.1121L9.50323 36.3312L4.60685 37.8964L6.16711 33.2454Z" fill="#4CAF50" stroke="white" stroke-width="3"/>
<path d="M32.8501 30.1291C32.373 31.5764 30.4792 32.7767 28.9687 33.1272C27.9353 33.3636 26.5854 33.5521 22.0414 31.5286C16.2291 28.942 12.4861 22.5978 12.1944 22.1862C11.915 21.7746 9.8457 18.8269 9.8457 15.7783C9.8457 12.7297 11.287 11.2452 11.868 10.6079C12.3452 10.0847 13.1338 9.8457 13.8903 9.8457C14.1351 9.8457 14.3551 9.85898 14.5529 9.8696C15.1339 9.89616 15.4256 9.93334 15.8088 10.9186C16.2859 12.1534 17.4479 15.202 17.5864 15.5154C17.7273 15.8287 17.8682 16.2536 17.6704 16.6652C17.485 17.0901 17.3218 17.2787 17.0301 17.6398C16.7384 18.001 16.4615 18.2772 16.1698 18.6649C15.9027 19.0022 15.6011 19.3633 15.9374 19.9874C16.2736 20.5982 17.4356 22.635 19.1464 24.2708C21.3541 26.382 23.144 27.0566 23.7843 27.3434C24.2615 27.5558 24.8301 27.5054 25.1787 27.107C25.6212 26.5945 26.1676 25.7447 26.7238 24.9082C27.1194 24.308 27.6188 24.2337 28.1429 24.4461C28.6769 24.6453 31.5027 26.1457 32.0837 26.4564C32.6647 26.7698 33.0479 26.9185 33.1888 27.1814C33.3273 27.4443 33.3273 28.6791 32.8501 30.1291Z" fill="#FAFAFA"/>
</svg>
