<svg width="24" height="25" viewBox="0 0 24 25" fill="none" xmlns="http://www.w3.org/2000/svg">
<g clip-path="url(#clip0)">
<path d="M20.7257 7.29688C21.2218 7.29688 21.5659 6.79527 21.3798 6.33528C20.7192 4.70211 19.1169 3.54688 17.2497 3.54688H16.3866C16.0647 1.84658 14.5739 0.5 12.7497 0.5H11.2497C9.42669 0.5 7.93494 1.84569 7.61286 3.54688H6.74971C4.88249 3.54688 3.28021 4.70211 2.6196 6.33528C2.43355 6.79527 2.77757 7.29688 3.27374 7.29688H20.7257ZM11.2497 1.90625H12.7497C13.7763 1.90625 14.6477 2.59691 14.941 3.54688H9.05839C9.35174 2.59691 10.2231 1.90625 11.2497 1.90625Z" fill="#FF0202"/>
<path d="M5.20513 22.5404C5.28337 23.6393 6.2076 24.5 7.30916 24.5H16.6898C17.7914 24.5 18.7156 23.6393 18.7939 22.5404L19.7793 8.70312H4.21973L5.20513 22.5404ZM13.9223 12.4649C13.9417 12.077 14.2724 11.7779 14.6596 11.7978C15.0475 11.8172 15.3462 12.1473 15.3268 12.5351L14.9518 20.0351C14.933 20.411 14.6223 20.7031 14.2501 20.7031C13.8452 20.7031 13.5273 20.3645 13.5472 19.9649L13.9223 12.4649ZM9.33941 11.7978C9.72674 11.7783 10.0574 12.0771 10.0768 12.4649L10.4518 19.9649C10.4717 20.3647 10.1535 20.7031 9.74891 20.7031C9.37673 20.7031 9.06604 20.411 9.04724 20.0351L8.67224 12.5351C8.65288 12.1473 8.95157 11.8172 9.33941 11.7978Z" fill="#FF0202"/>
</g>
<defs>
<clipPath id="clip0">
<rect width="24" height="24" fill="white" transform="translate(0 0.5)"/>
</clipPath>
</defs>
</svg>
