<svg width="42" height="42" viewBox="0 0 42 42" fill="none" xmlns="http://www.w3.org/2000/svg">
<path d="M12.4208 33.342C10.1629 33.342 8.33603 35.1894 8.33603 37.4473C8.33603 39.7051 10.1629 41.5525 12.4208 41.5525C14.6787 41.5525 16.526 39.7051 16.526 37.4473C16.526 35.1894 14.6787 33.342 12.4208 33.342ZM0.10498 0.499878V4.60514H4.21024L11.5997 20.1846L8.82867 25.2136C8.50025 25.7883 8.31551 26.4657 8.31551 27.1841C8.31551 29.442 10.1629 31.2894 12.4208 31.2894H37.0524V27.1841H13.2829C12.9955 27.1841 12.7697 26.9583 12.7697 26.6709L12.8313 26.4246L14.6787 23.0788H29.9708C31.5102 23.0788 32.865 22.2372 33.5629 20.9646L40.9113 7.64304C41.0755 7.35567 41.1576 7.00672 41.1576 6.65777C41.1576 5.52883 40.2339 4.60514 39.105 4.60514H8.74656L6.81709 0.499878H0.10498ZM32.9471 33.342C30.6892 33.342 28.8624 35.1894 28.8624 37.4473C28.8624 39.7051 30.6892 41.5525 32.9471 41.5525C35.205 41.5525 37.0524 39.7051 37.0524 37.4473C37.0524 35.1894 35.205 33.342 32.9471 33.342Z" fill="#4B75FC"/>
</svg>
