<svg width="841" height="774" viewBox="0 0 841 774" fill="none" xmlns="http://www.w3.org/2000/svg">
<path d="M419.606 0.781468C419.975 0.0460631 421.025 0.0460688 421.394 0.781473L487.649 132.835C487.931 133.397 488.655 133.563 489.153 133.179L606.143 42.9492C606.794 42.4467 607.74 42.9021 607.753 43.7248L610.151 191.448C610.161 192.077 610.742 192.54 611.357 192.41L755.91 161.876C756.715 161.706 757.37 162.527 757.025 163.274L695.09 297.408C694.826 297.979 695.149 298.649 695.76 298.798L839.246 334.007C840.045 334.203 840.278 335.227 839.643 335.75L725.643 429.728C725.158 430.128 725.158 430.872 725.643 431.272L839.643 525.25C840.278 525.773 840.045 526.797 839.246 526.993L695.76 562.202C695.149 562.351 694.826 563.021 695.09 563.592L757.025 697.726C757.37 698.473 756.715 699.294 755.91 699.124L611.357 668.59C610.742 668.46 610.161 668.923 610.151 669.552L607.753 817.275C607.74 818.098 606.794 818.553 606.143 818.051L489.153 727.821C488.655 727.437 487.931 727.603 487.649 728.165L421.394 860.219C421.025 860.954 419.975 860.954 419.606 860.219L353.351 728.165C353.069 727.603 352.345 727.437 351.847 727.821L234.857 818.051C234.206 818.553 233.26 818.098 233.247 817.275L230.849 669.552C230.839 668.923 230.258 668.46 229.643 668.59L85.0898 699.124C84.2848 699.294 83.6303 698.473 83.9752 697.726L145.91 563.592C146.174 563.021 145.851 562.351 145.24 562.202L1.7543 526.993C0.955227 526.797 0.721658 525.773 1.35652 525.25L115.357 431.272C115.842 430.872 115.842 430.128 115.357 429.728L1.35652 335.75C0.721653 335.227 0.955234 334.203 1.7543 334.007L145.24 298.798C145.851 298.649 146.174 297.979 145.91 297.408L83.9752 163.274C83.6303 162.527 84.2848 161.706 85.0898 161.876L229.643 192.41C230.258 192.54 230.839 192.077 230.849 191.448L233.247 43.7248C233.26 42.9021 234.206 42.4467 234.857 42.9492L351.847 133.179C352.345 133.563 353.069 133.397 353.351 132.835L419.606 0.781468Z" fill="white"/>
</svg>
