<svg width="42" height="42" viewBox="0 0 42 42" fill="none" xmlns="http://www.w3.org/2000/svg">
<path d="M5.00391 21C5.00391 20.3205 4.45298 19.7695 3.77344 19.7695H1.23047C0.550922 19.7695 0 20.3205 0 21C0 21.6795 0.550922 22.2305 1.23047 22.2305H3.77344C4.45298 22.2305 5.00391 21.6795 5.00391 21ZM40.7695 19.7695H38.2266C37.547 19.7695 36.9961 20.3205 36.9961 21C36.9961 21.6795 37.547 22.2305 38.2266 22.2305H40.7695C41.4491 22.2305 42 21.6795 42 21C42 20.3205 41.4491 19.7695 40.7695 19.7695ZM21 0C20.3205 0 19.7695 0.550922 19.7695 1.23047V3.77344C19.7695 4.45298 20.3205 5.00391 21 5.00391C21.6795 5.00391 22.2305 4.45298 22.2305 3.77344V1.23047C22.2305 0.550922 21.6795 0 21 0ZM21 36.9961C20.3205 36.9961 19.7695 37.547 19.7695 38.2266V40.7695C19.7695 41.4491 20.3205 42 21 42C21.6795 42 22.2305 41.4491 22.2305 40.7695V38.2266C22.2305 37.547 21.6795 36.9961 21 36.9961ZM7.94891 32.311L6.20878 34.0511C5.72824 34.5316 5.72824 35.3107 6.20878 35.7912C6.68932 36.2718 7.46845 36.2717 7.94891 35.7912L9.68904 34.0511C10.1696 33.5705 10.1696 32.7915 9.68904 32.311C9.20858 31.8303 8.42945 31.8303 7.94891 32.311ZM34.0511 9.68904L35.7912 7.94891C36.2718 7.46837 36.2718 6.68932 35.7912 6.20878C35.3108 5.72824 34.5316 5.72824 34.0511 6.20878L32.311 7.94891C31.8304 8.42945 31.8304 9.2085 32.311 9.68904C32.7914 10.1697 33.5706 10.1696 34.0511 9.68904ZM7.94891 6.20878C7.46845 5.72824 6.68932 5.72824 6.20878 6.20878C5.72824 6.68932 5.72824 7.46837 6.20878 7.94891L7.94891 9.68904C8.42945 10.1696 9.20858 10.1695 9.68904 9.68904C10.1696 9.2085 10.1696 8.42945 9.68904 7.94891L7.94891 6.20878ZM34.0511 32.311C33.5706 31.8304 32.7915 31.8304 32.311 32.311C31.8304 32.7915 31.8304 33.5705 32.311 34.0511L34.0511 35.7912C34.5316 36.2718 35.3108 36.2717 35.7912 35.7912C36.2718 35.3107 36.2718 34.5316 35.7912 34.0511L34.0511 32.311ZM14.8786 35.7785C14.251 35.5184 13.531 35.8166 13.2709 36.4444L12.3291 38.718C12.0691 39.3458 12.3672 40.0656 12.9951 40.3257C13.6249 40.5866 14.3436 40.2855 14.6027 39.6597L15.5445 37.3862C15.8046 36.7584 15.5064 36.0385 14.8786 35.7785ZM29.0049 1.67434C28.3772 1.41414 27.6573 1.71232 27.3973 2.34027L26.4555 4.61385C26.1954 5.24163 26.4935 5.96146 27.1214 6.2215C27.7501 6.48203 28.4694 6.18237 28.7291 5.55557L29.6709 3.28199C29.931 2.6542 29.6328 1.93438 29.0049 1.67434ZM2.34027 14.6027L4.61385 15.5445C4.76782 15.6083 4.92729 15.6385 5.08421 15.6385C5.56705 15.6385 6.0252 15.3525 6.2215 14.8786C6.48154 14.2508 6.18343 13.531 5.55557 13.2709L3.28199 12.3291C2.65412 12.0689 1.93438 12.3671 1.67434 12.9951C1.4143 13.6228 1.7124 14.3426 2.34027 14.6027ZM39.6597 27.3973L37.3862 26.4555C36.7582 26.1954 36.0385 26.4935 35.7785 27.1214C35.5185 27.7492 35.8166 28.469 36.4444 28.7291L38.718 29.6709C39.3478 29.9318 40.0665 29.6307 40.3257 29.0049C40.5857 28.3772 40.2876 27.6574 39.6597 27.3973ZM28.7291 36.4444C28.469 35.8165 27.7493 35.5183 27.1214 35.7784C26.4935 36.0385 26.1954 36.7583 26.4555 37.3861L27.3973 39.6596C27.6568 40.2862 28.3759 40.5862 29.0049 40.3256C29.6328 40.0655 29.9309 39.3457 29.6709 38.7179L28.7291 36.4444ZM14.6027 2.34027C14.3427 1.7124 13.6229 1.41422 12.9951 1.67434C12.3672 1.93438 12.0691 2.6542 12.3291 3.28199L13.2709 5.55557C13.5304 6.18212 14.2496 6.48211 14.8786 6.2215C15.5064 5.96146 15.8046 5.24163 15.5445 4.61385L14.6027 2.34027ZM35.7785 14.8786C36.038 15.5051 36.7571 15.8051 37.3862 15.5445L39.6597 14.6027C40.2876 14.3427 40.5857 13.6228 40.3257 12.9951C40.0657 12.3672 39.346 12.069 38.718 12.3291L36.4444 13.2709C35.8166 13.531 35.5184 14.2508 35.7785 14.8786ZM6.2215 27.1214C5.96154 26.4935 5.24171 26.1954 4.61385 26.4555L2.34027 27.3973C1.7124 27.6573 1.4143 28.3772 1.67434 29.0049C1.9338 29.6315 2.65297 29.9315 3.28199 29.6709L5.55557 28.7291C6.18343 28.469 6.48162 27.7492 6.2215 27.1214Z" fill="#FFE07D"/>
<path d="M21.002 34.5371C28.4772 34.5371 34.5371 28.4772 34.5371 21.002C34.5371 13.5267 28.4772 7.4668 21.002 7.4668C13.5267 7.4668 7.4668 13.5267 7.4668 21.002C7.4668 28.4772 13.5267 34.5371 21.002 34.5371Z" fill="#FFD064"/>
</svg>
