<svg width="533" height="311" viewBox="0 0 533 311" fill="none" xmlns="http://www.w3.org/2000/svg">
<path d="M508.003 67.947L507.468 101.445L504.882 243.834C505.101 247.881 510.4 260.513 504.882 272.066C499.364 283.619 477.512 285.734 470.396 286.172C345.371 286.281 91.1814 286.434 74.6281 286.172C53.9365 285.844 47.0393 282.233 36.2008 275.013C27.53 269.237 24.7055 257.509 24.377 252.367C25.1434 194.494 26.6761 75.6622 26.6761 63.3217C26.6761 47.8962 31.9311 43.9577 36.8577 35.7526C40.7989 29.1886 54.9218 25.5783 61.4906 24.5938L367.595 33.127L483.356 37.4666C485.396 38.2817 491.321 41.4904 498.707 47.804C506.093 54.1176 507.982 63.8633 508.003 67.947Z" fill="#009EFF" stroke="black" stroke-width="5"/>
<path d="M515.659 254.298L518.373 67.5513C518.21 66.072 517.55 62.8849 516.076 58.7362C514.519 54.3527 512.404 49.8959 510.017 46.3986C506.452 41.1748 504.159 39.7772 500.858 37.7655C499.444 36.9043 497.846 35.9305 495.885 34.4957C492.932 32.3361 484.367 27.1681 474.325 26.3682C461.149 25.3188 197.254 17.7068 65.8365 14.0065C58.3411 14.2898 46.6194 16.756 36.5944 23.0484C27.0186 29.0588 19.1348 38.3701 17.2565 53.4202L14.0217 251.813C17.298 267.693 32.5739 296.426 69.8293 296.808C117.282 297.295 356.584 295.931 471.423 295.18C479.07 294.007 490.409 290.425 499.681 283.673C508.909 276.953 515.465 267.685 515.659 254.298Z" stroke="url(#paint0_linear)" stroke-width="28"/>
<defs>
<linearGradient id="paint0_linear" x1="532.381" y1="0" x2="261.592" y2="463.68" gradientUnits="userSpaceOnUse">
<stop stop-color="#FFCED8"/>
<stop offset="1" stop-color="#EF92AE"/>
</linearGradient>
</defs>
</svg>
