<svg width="532" height="311" viewBox="0 0 532 311" fill="none" xmlns="http://www.w3.org/2000/svg">
<path d="M24.3603 67.947L24.8953 101.445L27.4788 243.834C27.26 247.881 18.8465 258.586 24.3604 270.138C29.8742 281.691 54.8291 285.734 61.9401 286.172C186.876 286.281 440.884 286.434 457.425 286.172C478.102 285.844 484.994 282.233 495.825 275.013C504.49 269.237 507.312 257.509 507.64 252.367C506.875 194.494 505.343 75.6622 505.343 63.3217C505.343 47.8962 500.092 43.9577 495.169 35.7526C491.23 29.1886 477.117 25.5783 470.553 24.5938L164.668 33.127L48.9893 37.4666C46.9515 38.2817 41.0307 41.4904 33.65 47.804C26.2693 54.1176 24.3816 63.8633 24.3603 67.947Z" fill="#009EFF" stroke="black" stroke-width="5"/>
<path d="M16.7196 254.298L14.0082 67.5509C14.1708 66.0706 14.8306 62.8826 16.3036 58.7332C17.8598 54.3492 19.973 49.8921 22.3584 46.3947C25.9208 41.1715 28.2114 39.7747 31.5098 37.7632C32.9221 36.902 34.5191 35.9281 36.4798 34.4929C39.4298 32.3336 47.986 27.1677 58.016 26.3682C71.1815 25.3188 334.886 17.7068 466.211 14.0065C473.698 14.2898 485.408 16.7552 495.423 23.046C504.989 29.0546 512.869 38.3656 514.746 53.4195L517.979 251.814C514.704 267.701 499.437 296.426 462.221 296.808C414.803 297.295 175.674 295.931 60.9155 295.18C53.2774 294.007 41.9497 290.426 32.6861 283.676C23.4674 276.958 16.914 267.69 16.7196 254.298Z" stroke="url(#paint0_linear)" stroke-width="28"/>
<defs>
<linearGradient id="paint0_linear" x1="0" y1="0" x2="270.884" y2="463.511" gradientUnits="userSpaceOnUse">
<stop stop-color="#FFCED8"/>
<stop offset="1" stop-color="#EF92AE"/>
</linearGradient>
</defs>
</svg>
