<svg width="36" height="36" viewBox="0 0 36 36" fill="none" xmlns="http://www.w3.org/2000/svg">
<path d="M28.8443 22.8887L25.0343 22.4537C24.1193 22.3487 23.2193 22.6637 22.5743 23.3087L19.8143 26.0687C15.5693 23.9087 12.0893 20.4437 9.92933 16.1837L12.7043 13.4087C13.3493 12.7637 13.6643 11.8637 13.5593 10.9487L13.1243 7.16867C12.9443 5.65367 11.6693 4.51367 10.1393 4.51367H7.54433C5.84933 4.51367 4.43933 5.92367 4.54433 7.61867C5.33933 20.4287 15.5843 30.6587 28.3793 31.4537C30.0743 31.5587 31.4843 30.1487 31.4843 28.4537V25.8587C31.4993 24.3437 30.3593 23.0687 28.8443 22.8887Z" fill="url(#paint0_linear)"/>
<defs>
<linearGradient id="paint0_linear" x1="4.53882" y1="4.51367" x2="31.4843" y2="31.4593" gradientUnits="userSpaceOnUse">
<stop stop-color="#4B75FC"/>
<stop offset="1" stop-color="#3C4FFF"/>
</linearGradient>
</defs>
</svg>
