<svg width="36" height="36" viewBox="0 0 36 36" fill="none" xmlns="http://www.w3.org/2000/svg">
<path d="M30 6H6C4.35 6 3 7.35 3 9V27C3 28.65 4.35 30 6 30H30C31.65 30 33 28.65 33 27V9C33 7.35 31.65 6 30 6ZM29.4 12.375L19.59 18.51C18.615 19.125 17.385 19.125 16.41 18.51L6.6 12.375C6.225 12.135 6 11.73 6 11.295C6 10.29 7.095 9.69 7.95 10.215L18 16.5L28.05 10.215C28.905 9.69 30 10.29 30 11.295C30 11.73 29.775 12.135 29.4 12.375Z" fill="url(#paint0_linear)"/>
<defs>
<linearGradient id="paint0_linear" x1="3" y1="6" x2="26.4146" y2="35.2683" gradientUnits="userSpaceOnUse">
<stop stop-color="#4B75FC"/>
<stop offset="1" stop-color="#3C4FFF"/>
</linearGradient>
</defs>
</svg>
