<svg width="187" height="84" viewBox="0 0 187 84" fill="none" xmlns="http://www.w3.org/2000/svg">
<path d="M18.3557 82.3153C25.6159 81.4579 33.8327 66.0964 37.5613 57.8798L35.4508 56.5938C35.0991 57.7369 32.9182 62.3811 26.1645 71.8122C17.7225 83.6012 13.0793 76.5278 10.5467 71.8122C8.01409 67.0966 4.63726 43.3572 10.5467 29.2105C16.4562 15.0637 23.0475 27.2968 26.1645 31.5155C28.767 35.0377 37.0515 50.7406 40.9911 58.2426C45.5639 65.8876 55.3319 78.4998 60.5659 65.8106C63.2457 59.314 63.3964 53.3928 63.0772 48.2531C62.6172 40.844 60.4772 35.059 57.6112 31.5155C52.757 25.5138 46.2144 34.945 43.6818 38.8032C41.6557 41.8897 44.3647 41.9319 44.9978 42.2177C48.7968 36.0017 51.0686 33.9237 53.1792 34.3019C60.3549 35.588 59.5107 60.0233 56.767 63.8815C54.0233 67.7397 49.0447 62.7948 39.7584 42.2177C32.3294 25.7561 26.1645 17.4519 21.3103 16.7259C17.7928 15.5827 9.05386 15.4397 4.83283 24.5279C-0.443465 35.8881 -0.427146 42.6614 0.416174 57.4511C1.23405 71.7946 9.28049 83.387 18.3557 82.3153Z" fill="url(#paint0_linear)"/>
<ellipse cx="15.2549" cy="5.91773" rx="5.84186" ry="5.91773" fill="#3C67FE"/>
<ellipse cx="53.0567" cy="19.2634" rx="5.84187" ry="5.91773" fill="#0466FE"/>
<path d="M76.9317 37.2257V16.0334H80.5715V24.9464C81.6054 24.1128 82.8608 23.696 84.3378 23.696C86.4267 23.696 88.0725 24.38 89.2752 25.7479C90.499 27.0731 91.1109 28.8365 91.1109 31.038C91.1109 33.4105 90.3724 35.3021 88.8954 36.7128C87.4395 38.1234 85.4667 38.8288 82.9769 38.8288C81.8797 38.8288 80.7719 38.6792 79.6536 38.3799C78.5564 38.0807 77.6491 37.696 76.9317 37.2257ZM83.4833 27.1586C82.3228 27.1586 81.3522 27.6181 80.5715 28.5372V34.6609C81.3522 35.1525 82.2173 35.3983 83.1668 35.3983C84.3695 35.3983 85.3401 35.0349 86.0786 34.3082C86.8382 33.5601 87.2179 32.5555 87.2179 31.2945C87.2179 29.9906 86.8698 28.9754 86.1735 28.2487C85.4772 27.522 84.5805 27.1586 83.4833 27.1586Z" fill="white"/>
<path d="M95.5055 36.7128C94.0918 35.2807 93.385 33.4639 93.385 31.2624C93.385 29.0609 94.0918 27.2548 95.5055 25.8441C96.9192 24.412 98.7971 23.696 101.139 23.696C103.46 23.696 105.328 24.412 106.741 25.8441C108.176 27.2548 108.893 29.0609 108.893 31.2624C108.893 33.4425 108.176 35.2593 106.741 36.7128C105.306 38.1234 103.439 38.8288 101.139 38.8288C98.7971 38.8288 96.9192 38.1234 95.5055 36.7128ZM98.3857 28.3128C97.6472 29.0823 97.2779 30.0655 97.2779 31.2624C97.2779 32.4593 97.6366 33.4532 98.354 34.2441C99.0925 35.0135 100.021 35.3983 101.139 35.3983C102.279 35.3983 103.207 35.0135 103.924 34.2441C104.663 33.4746 105.032 32.4807 105.032 31.2624C105.032 30.0655 104.663 29.0823 103.924 28.3128C103.186 27.5433 102.258 27.1586 101.139 27.1586C100.042 27.1586 99.1242 27.5433 98.3857 28.3128Z" fill="white"/>
<path d="M113.278 36.7128C111.864 35.2807 111.157 33.4639 111.157 31.2624C111.157 29.0609 111.864 27.2548 113.278 25.8441C114.691 24.412 116.569 23.696 118.911 23.696C121.232 23.696 123.1 24.412 124.513 25.8441C125.948 27.2548 126.666 29.0609 126.666 31.2624C126.666 33.4425 125.948 35.2593 124.513 36.7128C123.079 38.1234 121.211 38.8288 118.911 38.8288C116.569 38.8288 114.691 38.1234 113.278 36.7128ZM116.158 28.3128C115.419 29.0823 115.05 30.0655 115.05 31.2624C115.05 32.4593 115.409 33.4532 116.126 34.2441C116.865 35.0135 117.793 35.3983 118.911 35.3983C120.051 35.3983 120.979 35.0135 121.697 34.2441C122.435 33.4746 122.804 32.4807 122.804 31.2624C122.804 30.0655 122.435 29.0823 121.697 28.3128C120.958 27.5433 120.03 27.1586 118.911 27.1586C117.814 27.1586 116.896 27.5433 116.158 28.3128Z" fill="white"/>
<path d="M151.432 29.0502V38.4761H147.793V30.012C147.793 28.1739 146.98 27.2548 145.356 27.2548C143.963 27.2548 142.982 27.8105 142.412 28.9219C142.412 28.9647 142.412 29.1357 142.412 29.4349C142.433 29.7128 142.444 29.8945 142.444 29.98V38.4761H138.804V29.7555C138.804 28.9861 138.593 28.3769 138.171 27.9281C137.77 27.4792 137.19 27.2548 136.43 27.2548C135.101 27.2548 134.109 27.7678 133.455 28.7937V38.4761H129.815V24.0487H133.455V25.6517C134.552 24.412 136.04 23.7922 137.918 23.7922C138.952 23.7922 139.827 24.0059 140.545 24.4334C141.283 24.8395 141.79 25.3952 142.064 26.1006C143.224 24.5617 144.828 23.7922 146.875 23.7922C149.913 23.7922 151.432 25.5449 151.432 29.0502Z" fill="white"/>
<path d="M76.6152 65.0546V52.102H80.255V56.1096H84.8442V59.5722H80.255V64.8302C80.255 66.5615 80.8247 67.4271 81.9641 67.4271C82.6815 67.4271 83.4094 67.1493 84.1479 66.5936L85.2557 69.447C84.0952 70.3874 82.692 70.8577 81.0462 70.8577C79.5059 70.8577 78.3771 70.3874 77.6597 69.447C76.9634 68.4851 76.6152 67.021 76.6152 65.0546Z" fill="white"/>
<path d="M98.9529 66.4974L99.9973 69.0943C98.5836 70.2912 96.769 70.8897 94.5536 70.8897C92.2748 70.8897 90.418 70.1951 88.9832 68.8058C87.5906 67.4378 86.8943 65.6104 86.8943 63.3233C86.8943 61.1859 87.58 59.3905 88.9515 57.9371C90.323 56.4837 92.1482 55.757 94.427 55.757C96.3048 55.757 97.8979 56.3875 99.2061 57.6486C100.514 58.9096 101.168 60.5127 101.168 62.4577C101.168 63.3127 101.095 63.9752 100.947 64.4455H90.6606C90.8083 65.4928 91.262 66.3157 92.0216 66.9142C92.8023 67.5126 93.7729 67.8119 94.9334 67.8119C96.5158 67.8119 97.8557 67.3737 98.9529 66.4974ZM94.2687 58.8348C92.2009 58.8348 90.956 59.8821 90.534 61.9768H97.5286C97.5497 61.0577 97.2543 60.3096 96.6424 59.7325C96.0516 59.134 95.2604 58.8348 94.2687 58.8348Z" fill="white"/>
<path d="M104.1 66.5615V48.0944H107.74V65.0546C107.74 66.6149 108.151 67.3951 108.974 67.3951C109.438 67.3951 109.934 67.2027 110.462 66.818L111.221 69.6393C110.229 70.4516 108.974 70.8577 107.455 70.8577C105.218 70.8577 104.1 69.4256 104.1 66.5615Z" fill="white"/>
<path d="M124.73 66.4974L125.775 69.0943C124.361 70.2912 122.546 70.8897 120.331 70.8897C118.052 70.8897 116.195 70.1951 114.761 68.8058C113.368 67.4378 112.672 65.6104 112.672 63.3233C112.672 61.1859 113.357 59.3905 114.729 57.9371C116.1 56.4837 117.926 55.757 120.204 55.757C122.082 55.757 123.675 56.3875 124.983 57.6486C126.292 58.9096 126.946 60.5127 126.946 62.4577C126.946 63.3127 126.872 63.9752 126.724 64.4455H116.438C116.586 65.4928 117.039 66.3157 117.799 66.9142C118.58 67.5126 119.55 67.8119 120.711 67.8119C122.293 67.8119 123.633 67.3737 124.73 66.4974ZM120.046 58.8348C117.978 58.8348 116.733 59.8821 116.311 61.9768H123.306C123.327 61.0577 123.032 60.3096 122.42 59.7325C121.829 59.134 121.038 58.8348 120.046 58.8348Z" fill="white"/>
<path d="M140.577 65.6958L142.286 68.389C141.084 70.0561 139.195 70.8897 136.621 70.8897C134.321 70.8897 132.454 70.1951 131.019 68.8058C129.605 67.4378 128.898 65.6104 128.898 63.3233C128.898 61.1646 129.595 59.3692 130.987 57.9371C132.38 56.4837 134.142 55.757 136.273 55.757C138.805 55.757 140.714 56.4089 142.001 57.7127L140.292 60.6302C139.322 59.6898 138.14 59.2195 136.748 59.2195C135.693 59.2195 134.764 59.6043 133.962 60.3737C133.182 61.1004 132.791 62.0836 132.791 63.3233C132.791 64.563 133.192 65.5676 133.994 66.3371C134.838 67.0852 135.809 67.4592 136.906 67.4592C138.32 67.4592 139.543 66.8714 140.577 65.6958Z" fill="white"/>
<path d="M145.669 68.7737C144.256 67.3416 143.549 65.5249 143.549 63.3233C143.549 61.1218 144.256 59.3157 145.669 57.905C147.083 56.473 148.961 55.757 151.303 55.757C153.624 55.757 155.491 56.473 156.905 57.905C158.34 59.3157 159.057 61.1218 159.057 63.3233C159.057 65.5035 158.34 67.3203 156.905 68.7737C155.47 70.1844 153.603 70.8897 151.303 70.8897C148.961 70.8897 147.083 70.1844 145.669 68.7737ZM148.55 60.3737C147.811 61.1432 147.442 62.1264 147.442 63.3233C147.442 64.5203 147.8 65.5142 148.518 66.305C149.256 67.0745 150.185 67.4592 151.303 67.4592C152.442 67.4592 153.371 67.0745 154.088 66.305C154.827 65.5355 155.196 64.5417 155.196 63.3233C155.196 62.1264 154.827 61.1432 154.088 60.3737C153.35 59.6043 152.421 59.2195 151.303 59.2195C150.206 59.2195 149.288 59.6043 148.55 60.3737Z" fill="white"/>
<path d="M183.824 61.1111V70.537H180.184V62.073C180.184 60.2348 179.372 59.3157 177.747 59.3157C176.355 59.3157 175.374 59.8714 174.804 60.9829C174.804 61.0256 174.804 61.1966 174.804 61.4959C174.825 61.7737 174.835 61.9554 174.835 62.0409V70.537H171.196V61.8165C171.196 61.047 170.985 60.4379 170.563 59.989C170.162 59.5401 169.582 59.3157 168.822 59.3157C167.493 59.3157 166.501 59.8287 165.847 60.8546V70.537H162.207V56.1096H165.847V57.7127C166.944 56.473 168.432 55.8531 170.31 55.8531C171.343 55.8531 172.219 56.0669 172.937 56.4944C173.675 56.9005 174.181 57.4562 174.456 58.1615C175.616 56.6226 177.22 55.8531 179.266 55.8531C182.305 55.8531 183.824 57.6058 183.824 61.1111Z" fill="white"/>
<defs>
<linearGradient id="paint0_linear" x1="13.4038" y1="17.7036" x2="62.5027" y2="72.1099" gradientUnits="userSpaceOnUse">
<stop stop-color="#3C67FE"/>
<stop offset="0.473958" stop-color="#0166FE"/>
<stop offset="0.854167" stop-color="#A42CEE"/>
</linearGradient>
</defs>
</svg>
