<svg width="115" height="51" viewBox="0 0 115 51" fill="none" xmlns="http://www.w3.org/2000/svg">
<path d="M11.407 50.9573C15.9107 50.4266 21.0078 40.917 23.3207 35.8305L22.0115 35.0344C21.7933 35.742 20.4405 38.617 16.251 44.4554C11.0142 51.7533 8.13394 47.3746 6.56289 44.4554C4.99184 41.5362 2.89712 26.8403 6.56289 18.0827C10.2287 9.32517 14.3175 16.898 16.251 19.5096C17.8654 21.6901 23.0044 31.411 25.4483 36.0551C28.2849 40.7877 34.3442 48.5953 37.5911 40.7401C39.2533 36.7184 39.3469 33.0528 39.1489 29.8711C38.8635 25.2845 37.536 21.7032 35.7582 19.5096C32.747 15.7943 28.6885 21.6327 27.1174 24.0211C25.8606 25.9318 27.541 25.958 27.9338 26.1349C30.2903 22.2869 31.6996 21.0004 33.0088 21.2346C37.4601 22.0307 36.9364 37.1574 35.2345 39.5458C33.5325 41.9343 30.4441 38.8731 24.6836 26.1349C20.0752 15.9443 16.251 10.8036 13.2398 10.3541C11.0578 9.64645 5.63684 9.55788 3.01843 15.1839C-0.254584 22.2165 -0.244461 26.4095 0.278671 35.5651C0.786016 44.4445 5.77742 51.6208 11.407 50.9573Z" fill="url(#paint0_linear)"/>
<ellipse cx="9.48323" cy="3.66338" rx="3.62385" ry="3.66338" fill="#3C67FE"/>
<ellipse cx="32.9334" cy="11.9251" rx="3.62385" ry="3.66338" fill="#0466FE"/>
<path d="M47.7432 23.0449V9.92578H50.001V15.4433C50.6424 14.9273 51.4212 14.6693 52.3374 14.6693C53.6332 14.6693 54.6541 15.0927 55.4002 15.9395C56.1593 16.7599 56.5389 17.8515 56.5389 19.2143C56.5389 20.6831 56.0808 21.854 55.1646 22.7273C54.2614 23.6006 53.0376 24.0373 51.4931 24.0373C50.8125 24.0373 50.1254 23.9446 49.4317 23.7594C48.751 23.5742 48.1882 23.336 47.7432 23.0449ZM51.8073 16.8128C51.0874 16.8128 50.4853 17.0973 50.001 17.6663V21.4571C50.4853 21.7614 51.022 21.9136 51.6109 21.9136C52.357 21.9136 52.9591 21.6887 53.4172 21.2388C53.8884 20.7757 54.124 20.1538 54.124 19.3731C54.124 18.566 53.908 17.9375 53.4761 17.4876C53.0442 17.0378 52.4879 16.8128 51.8073 16.8128Z" fill="black"/>
<path d="M59.265 22.7273C58.388 21.8408 57.9496 20.7161 57.9496 19.3533C57.9496 17.9904 58.388 16.8724 59.265 15.9991C60.1419 15.1126 61.3068 14.6693 62.7597 14.6693C64.1995 14.6693 65.3578 15.1126 66.2348 15.9991C67.1248 16.8724 67.5698 17.9904 67.5698 19.3533C67.5698 20.7029 67.1248 21.8276 66.2348 22.7273C65.3447 23.6006 64.1864 24.0373 62.7597 24.0373C61.3068 24.0373 60.1419 23.6006 59.265 22.7273ZM61.0516 17.5273C60.5935 18.0037 60.3644 18.6123 60.3644 19.3533C60.3644 20.0942 60.587 20.7095 61.032 21.1991C61.4901 21.6754 62.066 21.9136 62.7597 21.9136C63.4665 21.9136 64.0424 21.6754 64.4874 21.1991C64.9455 20.7227 65.1746 20.1075 65.1746 19.3533C65.1746 18.6123 64.9455 18.0037 64.4874 17.5273C64.0293 17.051 63.4534 16.8128 62.7597 16.8128C62.0791 16.8128 61.5097 17.051 61.0516 17.5273Z" fill="black"/>
<path d="M70.2895 22.7273C69.4125 21.8408 68.9741 20.7161 68.9741 19.3533C68.9741 17.9904 69.4125 16.8724 70.2895 15.9991C71.1664 15.1126 72.3313 14.6693 73.7842 14.6693C75.224 14.6693 76.3823 15.1126 77.2593 15.9991C78.1493 16.8724 78.5943 17.9904 78.5943 19.3533C78.5943 20.7029 78.1493 21.8276 77.2593 22.7273C76.3692 23.6006 75.2109 24.0373 73.7842 24.0373C72.3313 24.0373 71.1664 23.6006 70.2895 22.7273ZM72.0761 17.5273C71.618 18.0037 71.3889 18.6123 71.3889 19.3533C71.3889 20.0942 71.6115 20.7095 72.0565 21.1991C72.5146 21.6754 73.0905 21.9136 73.7842 21.9136C74.491 21.9136 75.0669 21.6754 75.5119 21.1991C75.97 20.7227 76.1991 20.1075 76.1991 19.3533C76.1991 18.6123 75.97 18.0037 75.5119 17.5273C75.0538 17.051 74.4779 16.8128 73.7842 16.8128C73.1036 16.8128 72.5342 17.051 72.0761 17.5273Z" fill="black"/>
<path d="M93.9578 17.9838V23.8189H91.7V18.5792C91.7 17.4413 91.196 16.8724 90.1882 16.8724C89.3243 16.8724 88.7157 17.2164 88.3623 17.9044C88.3623 17.9309 88.3623 18.0367 88.3623 18.222C88.3754 18.394 88.3819 18.5065 88.3819 18.5594V23.8189H86.1241V18.4205C86.1241 17.9441 85.9932 17.567 85.7315 17.2892C85.4828 17.0113 85.1228 16.8724 84.6516 16.8724C83.827 16.8724 83.2119 17.1899 82.8061 17.825V23.8189H80.5483V14.8876H82.8061V15.88C83.4867 15.1126 84.4095 14.7288 85.5744 14.7288C86.2157 14.7288 86.7589 14.8612 87.204 15.1258C87.6621 15.3772 87.9762 15.7212 88.1463 16.1579C88.8662 15.2052 89.861 14.7288 91.1306 14.7288C93.0154 14.7288 93.9578 15.8138 93.9578 17.9838Z" fill="black"/>
<path d="M47.5469 40.2724V32.2541H49.8047V34.735H52.6515V36.8785H49.8047V40.1335C49.8047 41.2052 50.1581 41.7411 50.8649 41.7411C51.3099 41.7411 51.7615 41.5691 52.2196 41.2251L52.9067 42.9915C52.1869 43.5737 51.3165 43.8648 50.2955 43.8648C49.34 43.8648 48.6398 43.5737 48.1948 42.9915C47.7628 42.3961 47.5469 41.4897 47.5469 40.2724Z" fill="black"/>
<path d="M61.4035 41.1655L62.0514 42.7732C61.1744 43.5141 60.0488 43.8846 58.6745 43.8846C57.2609 43.8846 56.109 43.4546 55.219 42.5945C54.3551 41.7477 53.9232 40.6164 53.9232 39.2006C53.9232 37.8775 54.3486 36.766 55.1994 35.8663C56.0501 34.9665 57.1823 34.5167 58.5959 34.5167C59.7608 34.5167 60.749 34.907 61.5605 35.6877C62.372 36.4683 62.7778 37.4607 62.7778 38.6648C62.7778 39.194 62.732 39.6042 62.6404 39.8953H56.2596C56.3512 40.5437 56.6326 41.0531 57.1038 41.4236C57.5881 41.794 58.1902 41.9793 58.9101 41.9793C59.8917 41.9793 60.7229 41.708 61.4035 41.1655ZM58.4978 36.422C57.2151 36.422 56.4428 37.0704 56.181 38.3671H60.52C60.5331 37.7981 60.3498 37.335 59.9702 36.9777C59.6038 36.6073 59.1129 36.422 58.4978 36.422Z" fill="black"/>
<path d="M64.5963 41.2052V29.7731H66.8541V40.2724C66.8541 41.2383 67.1094 41.7213 67.6198 41.7213C67.9078 41.7213 68.2154 41.6022 68.5426 41.364L69.0138 43.1106C68.3986 43.6134 67.6198 43.8648 66.6774 43.8648C65.29 43.8648 64.5963 42.9783 64.5963 41.2052Z" fill="black"/>
<path d="M77.3938 41.1655L78.0417 42.7732C77.1647 43.5141 76.0391 43.8846 74.6648 43.8846C73.2512 43.8846 72.0994 43.4546 71.2093 42.5945C70.3455 41.7477 69.9135 40.6164 69.9135 39.2006C69.9135 37.8775 70.3389 36.766 71.1897 35.8663C72.0405 34.9665 73.1727 34.5167 74.5862 34.5167C75.7511 34.5167 76.7394 34.907 77.5509 35.6877C78.3624 36.4683 78.7681 37.4607 78.7681 38.6648C78.7681 39.194 78.7223 39.6042 78.6307 39.8953H72.2499C72.3415 40.5437 72.6229 41.0531 73.0941 41.4236C73.5784 41.794 74.1805 41.9793 74.9004 41.9793C75.882 41.9793 76.7132 41.708 77.3938 41.1655ZM74.4881 36.422C73.2054 36.422 72.4331 37.0704 72.1714 38.3671H76.5103C76.5234 37.7981 76.3401 37.335 75.9606 36.9777C75.5941 36.6073 75.1033 36.422 74.4881 36.422Z" fill="black"/>
<path d="M87.224 40.6694L88.2842 42.3365C87.5382 43.3686 86.3667 43.8846 84.7699 43.8846C83.3432 43.8846 82.1849 43.4546 81.2948 42.5945C80.4179 41.7477 79.9794 40.6164 79.9794 39.2006C79.9794 37.8643 80.4113 36.7528 81.2752 35.8663C82.139 34.9665 83.232 34.5167 84.5539 34.5167C86.1246 34.5167 87.3091 34.9202 88.1075 35.7274L87.0473 37.5335C86.4453 36.9513 85.7123 36.6602 84.8484 36.6602C84.194 36.6602 83.6181 36.8984 83.1207 37.3747C82.6364 37.8246 82.3943 38.4332 82.3943 39.2006C82.3943 39.9681 82.643 40.59 83.1403 41.0663C83.6639 41.5294 84.266 41.761 84.9466 41.761C85.8235 41.761 86.5827 41.3971 87.224 40.6694Z" fill="black"/>
<path d="M90.3828 42.5747C89.5059 41.6882 89.0674 40.5635 89.0674 39.2006C89.0674 37.8378 89.5059 36.7197 90.3828 35.8464C91.2598 34.9599 92.4247 34.5167 93.8776 34.5167C95.3173 34.5167 96.4757 34.9599 97.3526 35.8464C98.2427 36.7197 98.6877 37.8378 98.6877 39.2006C98.6877 40.5503 98.2427 41.675 97.3526 42.5747C96.4626 43.448 95.3042 43.8846 93.8776 43.8846C92.4247 43.8846 91.2598 43.448 90.3828 42.5747ZM92.1695 37.3747C91.7114 37.851 91.4823 38.4597 91.4823 39.2006C91.4823 39.9416 91.7048 40.5569 92.1498 41.0465C92.6079 41.5228 93.1838 41.761 93.8776 41.761C94.5843 41.761 95.1603 41.5228 95.6053 41.0465C96.0634 40.5701 96.2924 39.9548 96.2924 39.2006C96.2924 38.4597 96.0634 37.851 95.6053 37.3747C95.1472 36.8984 94.5713 36.6602 93.8776 36.6602C93.1969 36.6602 92.6276 36.8984 92.1695 37.3747Z" fill="black"/>
<path d="M114.051 37.8312V43.6663H111.793V38.4266C111.793 37.2887 111.289 36.7197 110.282 36.7197C109.418 36.7197 108.809 37.0637 108.456 37.7518C108.456 37.7783 108.456 37.8841 108.456 38.0693C108.469 38.2414 108.475 38.3538 108.475 38.4068V43.6663H106.217V38.2678C106.217 37.7915 106.087 37.4144 105.825 37.1365C105.576 36.8587 105.216 36.7197 104.745 36.7197C103.92 36.7197 103.305 37.0373 102.899 37.6724V43.6663H100.642V34.735H102.899V35.7274C103.58 34.9599 104.503 34.5762 105.668 34.5762C106.309 34.5762 106.852 34.7085 107.297 34.9732C107.755 35.2246 108.07 35.5686 108.24 36.0052C108.96 35.0525 109.954 34.5762 111.224 34.5762C113.109 34.5762 114.051 35.6612 114.051 37.8312Z" fill="black"/>
<defs>
<linearGradient id="paint0_linear" x1="8.33521" y1="10.9594" x2="38.7235" y2="44.7017" gradientUnits="userSpaceOnUse">
<stop stop-color="#3C67FE"/>
<stop offset="0.473958" stop-color="#0166FE"/>
<stop offset="0.854167" stop-color="#A42CEE"/>
</linearGradient>
</defs>
</svg>
