<svg width="20" height="20" viewBox="0 0 20 20" fill="none" xmlns="http://www.w3.org/2000/svg">
<g clip-path="url(#clip0)">
<path d="M8.80758 0C3.95121 0 0 3.95121 0 8.80758C0 13.6642 3.95121 17.6152 8.80758 17.6152C13.6642 17.6152 17.6152 13.6642 17.6152 8.80758C17.6152 3.95121 13.6642 0 8.80758 0ZM8.80758 15.9892C4.84769 15.9892 1.62602 12.7675 1.62602 8.80762C1.62602 4.84773 4.84769 1.62602 8.80758 1.62602C12.7675 1.62602 15.9891 4.84769 15.9891 8.80758C15.9891 12.7675 12.7675 15.9892 8.80758 15.9892Z" fill="#D3D3D3"/>
<path d="M19.7618 18.6126L15.1005 13.9513C14.7829 13.6337 14.2685 13.6337 13.9509 13.9513C13.6333 14.2687 13.6333 14.7836 13.9509 15.101L18.6122 19.7622C18.771 19.921 18.9788 20.0004 19.187 20.0004C19.3948 20.0004 19.603 19.921 19.7618 19.7622C20.0794 19.4449 20.0794 18.9299 19.7618 18.6126Z" fill="#D3D3D3"/>
</g>
<defs>
<clipPath id="clip0">
<rect width="20" height="20" fill="white"/>
</clipPath>
</defs>
</svg>
